<svg width="163" height="15" viewBox="0 0 163 15" fill="none" xmlns="http://www.w3.org/2000/svg">
<path d="M6.32 6.04H9.92V7.96H6.32V11.56H4.4V7.96H0.8V6.04H4.4V2.44H6.32V6.04ZM10.4614 0.4H20.5614V2.2L14.9214 14H12.4614L17.9814 2.44H10.4614V0.4ZM33.4036 0.4H35.7436V9.24H38.0836V11.22H35.7436V14H33.5436V11.22H26.1636V9.28L33.4036 0.4ZM33.5436 9.24V3.3L28.7036 9.24H33.5436ZM39.3719 4.7C39.3719 3.26 39.8519 2.14 40.8119 1.34C41.7719 0.54 42.9719 0.14 44.4119 0.14C46.4252 0.14 47.9119 0.739999 48.8719 1.94C49.8452 3.14 50.3319 4.85333 50.3319 7.08C50.3319 9.45333 49.7452 11.2467 48.5719 12.46C47.3985 13.66 45.8852 14.26 44.0319 14.26C42.7919 14.26 41.6185 13.9933 40.5119 13.46V11.38C41.5385 11.9533 42.6385 12.24 43.8119 12.24C44.9585 12.24 45.9119 11.9 46.6719 11.22C47.4452 10.54 47.8985 9.44 48.0319 7.92C46.8052 8.65333 45.4852 9.02 44.0719 9.02C42.8052 9.02 41.7052 8.64 40.7719 7.88C39.8385 7.12 39.3719 6.06 39.3719 4.7ZM44.5719 2.1C43.7185 2.1 43.0185 2.30667 42.4719 2.72C41.9385 3.12 41.6719 3.74667 41.6719 4.6C41.6719 5.46667 41.9585 6.09333 42.5319 6.48C43.1052 6.85333 43.8385 7.04 44.7319 7.04C45.9585 7.04 47.0519 6.66 48.0119 5.9C47.7719 3.36667 46.6252 2.1 44.5719 2.1ZM53.1291 0.4H61.5091V2.44H55.2291L55.0291 5.72C55.6824 5.56 56.3691 5.48 57.0891 5.48C58.5424 5.48 59.7491 5.83333 60.7091 6.54C61.6691 7.23333 62.1491 8.32667 62.1491 9.82C62.1491 11.2333 61.6224 12.3267 60.5691 13.1C59.5291 13.8733 58.2224 14.26 56.6491 14.26C55.0091 14.26 53.5557 13.9533 52.2891 13.34V11.2C53.4357 11.8667 54.8024 12.2 56.3891 12.2C57.4291 12.2 58.2624 11.9933 58.8891 11.58C59.5291 11.1667 59.8491 10.5733 59.8491 9.8C59.8491 8.17333 58.6157 7.36 56.1491 7.36C55.0024 7.36 53.8491 7.56 52.6891 7.96L53.1291 0.4ZM78.0553 3.86C78.0553 4.56667 77.8686 5.18667 77.4953 5.72C77.1353 6.25333 76.6486 6.62 76.0353 6.82C76.7686 7.04667 77.382 7.44667 77.8753 8.02C78.3686 8.59333 78.6153 9.35333 78.6153 10.3C78.6153 11.5933 78.122 12.58 77.1353 13.26C76.1486 13.9267 74.9086 14.26 73.4153 14.26C71.6686 14.26 70.0953 13.96 68.6953 13.36V11.16C70.002 11.88 71.5153 12.2267 73.2353 12.2C75.3686 12.1733 76.4353 11.46 76.4353 10.06C76.4353 8.7 75.4753 8.02 73.5553 8.02H71.3953V5.96L73.2953 5.98C74.122 5.98 74.7553 5.82 75.1953 5.5C75.6486 5.16667 75.8753 4.71333 75.8753 4.14C75.8753 3.52667 75.622 3.05333 75.1153 2.72C74.622 2.37333 73.9153 2.2 72.9953 2.2C71.582 2.2 70.2286 2.57333 68.9353 3.32V1.14C70.202 0.473333 71.6553 0.14 73.2953 0.14C74.722 0.14 75.8686 0.473333 76.7353 1.14C77.6153 1.80667 78.0553 2.71333 78.0553 3.86ZM80.8512 1.52C82.1979 0.6 83.7046 0.14 85.3713 0.14C86.7979 0.14 87.9513 0.473333 88.8313 1.14C89.7113 1.79333 90.1513 2.73333 90.1513 3.96C90.1513 4.98667 89.8113 5.86667 89.1313 6.6C88.4646 7.32 87.5513 8.02667 86.3913 8.72C86.2979 8.77333 86.1246 8.87333 85.8713 9.02C85.6313 9.16667 85.4579 9.27333 85.3513 9.34C85.2579 9.39333 85.1046 9.48667 84.8913 9.62C84.6779 9.75333 84.5179 9.85333 84.4113 9.92C84.3179 9.98667 84.1846 10.0867 84.0113 10.22C83.8513 10.34 83.7313 10.4467 83.6513 10.54C83.5713 10.62 83.4779 10.7267 83.3713 10.86C83.2646 10.98 83.1846 11.0933 83.1313 11.2C83.0913 11.3067 83.0513 11.4267 83.0113 11.56C82.9713 11.6933 82.9513 11.8267 82.9513 11.96L90.2513 11.94V14H80.3913V12.96C80.3913 12.2133 80.4913 11.5533 80.6913 10.98C80.9046 10.3933 81.2713 9.86 81.7913 9.38C82.3246 8.88667 82.7379 8.54 83.0313 8.34C83.3246 8.12667 83.8446 7.8 84.5913 7.36C84.6579 7.30667 84.7113 7.26667 84.7513 7.24C84.8046 7.21333 84.8579 7.18667 84.9113 7.16C86.0313 6.50667 86.7513 6.03333 87.0713 5.74C87.6046 5.22 87.8713 4.64 87.8713 4C87.8713 3.41333 87.6313 2.96667 87.1513 2.66C86.6846 2.35333 86.0246 2.2 85.1713 2.2C83.6913 2.2 82.2513 2.70667 80.8512 3.72V1.52ZM92.5505 1.52C93.8971 0.6 95.4038 0.14 97.0705 0.14C98.4971 0.14 99.6505 0.473333 100.53 1.14C101.41 1.79333 101.85 2.73333 101.85 3.96C101.85 4.98667 101.51 5.86667 100.83 6.6C100.164 7.32 99.2505 8.02667 98.0905 8.72C97.9971 8.77333 97.8238 8.87333 97.5705 9.02C97.3305 9.16667 97.1571 9.27333 97.0505 9.34C96.9571 9.39333 96.8038 9.48667 96.5905 9.62C96.3771 9.75333 96.2171 9.85333 96.1105 9.92C96.0171 9.98667 95.8838 10.0867 95.7105 10.22C95.5505 10.34 95.4305 10.4467 95.3505 10.54C95.2705 10.62 95.1771 10.7267 95.0705 10.86C94.9638 10.98 94.8838 11.0933 94.8305 11.2C94.7905 11.3067 94.7505 11.4267 94.7105 11.56C94.6705 11.6933 94.6505 11.8267 94.6505 11.96L101.95 11.94V14H92.0905V12.96C92.0905 12.2133 92.1905 11.5533 92.3905 10.98C92.6038 10.3933 92.9705 9.86 93.4905 9.38C94.0238 8.88667 94.4371 8.54 94.7305 8.34C95.0238 8.12667 95.5438 7.8 96.2905 7.36C96.3571 7.30667 96.4105 7.26667 96.4505 7.24C96.5038 7.21333 96.5571 7.18667 96.6105 7.16C97.7305 6.50667 98.4505 6.03333 98.7705 5.74C99.3038 5.22 99.5705 4.64 99.5705 4C99.5705 3.41333 99.3305 2.96667 98.8505 2.66C98.3838 2.35333 97.7238 2.2 96.8705 2.2C95.3905 2.2 93.9505 2.70667 92.5505 3.72V1.52ZM109.496 0.4H117.876V2.44H111.596L111.396 5.72C112.05 5.56 112.736 5.48 113.456 5.48C114.91 5.48 116.116 5.83333 117.076 6.54C118.036 7.23333 118.516 8.32667 118.516 9.82C118.516 11.2333 117.99 12.3267 116.936 13.1C115.896 13.8733 114.59 14.26 113.016 14.26C111.376 14.26 109.923 13.9533 108.656 13.34V11.2C109.803 11.8667 111.17 12.2 112.756 12.2C113.796 12.2 114.63 11.9933 115.256 11.58C115.896 11.1667 116.216 10.5733 116.216 9.8C116.216 8.17333 114.983 7.36 112.516 7.36C111.37 7.36 110.216 7.56 109.056 7.96L109.496 0.4ZM127.056 0.4H129.396V9.24H131.736V11.22H129.396V14H127.196V11.22H119.816V9.28L127.056 0.4ZM127.196 9.24V3.3L122.356 9.24H127.196ZM144.771 0.4H147.111V9.24H149.451V11.22H147.111V14H144.911V11.22H137.531V9.28L144.771 0.4ZM144.911 9.24V3.3L140.071 9.24H144.911ZM151.439 3.78C151.439 2.79333 151.872 1.94 152.739 1.22C153.606 0.499999 154.872 0.14 156.539 0.14C158.099 0.14 159.339 0.513333 160.259 1.26C161.192 2.00667 161.672 2.89333 161.699 3.92C161.726 5.25333 161.126 6.35333 159.899 7.22C161.419 7.98 162.179 9.05333 162.179 10.44C162.179 11.5067 161.712 12.4133 160.779 13.16C159.846 13.8933 158.459 14.26 156.619 14.26C154.792 14.26 153.392 13.8733 152.419 13.1C151.446 12.3133 150.959 11.36 150.959 10.24C150.959 9.57333 151.152 8.92 151.539 8.28C151.926 7.64 152.472 7.10667 153.179 6.68C152.019 5.93333 151.439 4.96667 151.439 3.78ZM156.779 8.12C155.899 7.85333 155.246 7.64 154.819 7.48C154.299 7.8 153.899 8.18667 153.619 8.64C153.352 9.08 153.219 9.52667 153.219 9.98C153.232 10.7 153.532 11.2733 154.119 11.7C154.719 12.1133 155.586 12.32 156.719 12.32C157.639 12.32 158.392 12.1533 158.979 11.82C159.579 11.4867 159.879 11.0533 159.879 10.52C159.879 10.24 159.826 9.99333 159.719 9.78C159.612 9.55333 159.472 9.36667 159.299 9.22C159.139 9.07333 158.926 8.93333 158.659 8.8C158.392 8.66667 158.132 8.56 157.879 8.48C157.626 8.38667 157.326 8.28667 156.979 8.18C156.952 8.16667 156.926 8.16 156.899 8.16C156.886 8.16 156.866 8.15333 156.839 8.14C156.826 8.12667 156.806 8.12 156.779 8.12ZM159.459 4.2C159.459 3.58667 159.192 3.08 158.659 2.68C158.126 2.28 157.386 2.08 156.439 2.08C155.586 2.08 154.906 2.24 154.399 2.56C153.906 2.88 153.659 3.28 153.659 3.76C153.659 4.21333 153.812 4.6 154.119 4.92C154.439 5.24 154.746 5.46 155.039 5.58C155.332 5.7 155.799 5.86 156.439 6.06C156.546 6.1 156.626 6.12667 156.679 6.14C157.239 6.28667 157.726 6.42667 158.139 6.56C159.019 5.88 159.459 5.09333 159.459 4.2Z" fill="#666666"/>
</svg>
